<svg width="800" height="600" xmlns="http://www.w3.org/2000/svg">
  <defs>
    <linearGradient id="sunsetGradient" x1="0%" y1="0%" x2="0%" y2="100%">
      <stop offset="0%" style="stop-color:#f5f5dc;stop-opacity:1" />
      <stop offset="50%" style="stop-color:#8bc34a;stop-opacity:0.8" />
      <stop offset="100%" style="stop-color:#ffd700;stop-opacity:0.6" />
    </linearGradient>
    <pattern id="batikPattern" x="0" y="0" width="40" height="40" patternUnits="userSpaceOnUse">
      <circle cx="20" cy="20" r="8" fill="#8bc34a" opacity="0.3"/>
      <circle cx="10" cy="10" r="4" fill="#ffd700" opacity="0.4"/>
      <circle cx="30" cy="30" r="4" fill="#ffd700" opacity="0.4"/>
    </pattern>
  </defs>
  
  <!-- Sky background -->
  <rect width="800" height="600" fill="url(#sunsetGradient)"/>
  
  <!-- Traditional batik pattern overlay -->
  <rect width="800" height="600" fill="url(#batikPattern)" opacity="0.3"/>
  
  <!-- Mountain silhouettes (representing West Java landscape) -->
  <path d="M0,400 Q200,300 400,350 Q600,250 800,320 L800,600 L0,600 Z" fill="#8d6e63" opacity="0.7"/>
  <path d="M0,450 Q150,380 300,400 Q500,320 800,380 L800,600 L0,600 Z" fill="#5d4e37" opacity="0.6"/>
  
  <!-- Traditional houses silhouettes -->
  <polygon points="100,350 150,320 200,350 200,400 100,400" fill="#8d6e63" opacity="0.8"/>
  <polygon points="120,320 130,310 140,320 140,350 120,350" fill="#5d4e37"/>
  
  <polygon points="600,380 650,350 700,380 700,430 600,430" fill="#8d6e63" opacity="0.8"/>
  <polygon points="620,350 630,340 640,350 640,380 620,380" fill="#5d4e37"/>
  
  <!-- Traditional ornamental elements -->
  <circle cx="400" cy="150" r="30" fill="none" stroke="#ffd700" stroke-width="3" opacity="0.8"/>
  <circle cx="400" cy="150" r="20" fill="none" stroke="#8bc34a" stroke-width="2" opacity="0.6"/>
  
  <!-- Subtle floral motifs -->
  <g transform="translate(50,100)" opacity="0.4">
    <circle cx="0" cy="0" r="10" fill="#8bc34a"/>
    <circle cx="15" cy="0" r="8" fill="#ffd700"/>
    <circle cx="7" cy="12" r="6" fill="#8bc34a"/>
  </g>
  
  <g transform="translate(700,200) rotate(45)" opacity="0.4">
    <circle cx="0" cy="0" r="12" fill="#ffd700"/>
    <circle cx="18" cy="0" r="10" fill="#8bc34a"/>
    <circle cx="9" cy="15" r="8" fill="#ffd700"/>
  </g>
  
  <!-- Decorative border elements -->
  <rect x="0" y="0" width="800" height="20" fill="#8bc34a" opacity="0.3"/>
  <rect x="0" y="580" width="800" height="20" fill="#ffd700" opacity="0.3"/>
</svg>