<svg width="100" height="100" xmlns="http://www.w3.org/2000/svg">
  <defs>
    <radialGradient id="ornamentGradient" cx="50%" cy="50%" r="50%">
      <stop offset="0%" style="stop-color:#ffd700;stop-opacity:1" />
      <stop offset="70%" style="stop-color:#8bc34a;stop-opacity:0.8" />
      <stop offset="100%" style="stop-color:#f5f5dc;stop-opacity:0.6" />
    </radialGradient>
  </defs>
  
  <!-- Central flower motif -->
  <circle cx="50" cy="50" r="25" fill="url(#ornamentGradient)" opacity="0.8"/>
  
  <!-- Petal design -->
  <g transform="translate(50,50)">
    <ellipse cx="0" cy="-15" rx="8" ry="15" fill="#8bc34a" opacity="0.7" transform="rotate(0)"/>
    <ellipse cx="0" cy="-15" rx="8" ry="15" fill="#8bc34a" opacity="0.7" transform="rotate(45)"/>
    <ellipse cx="0" cy="-15" rx="8" ry="15" fill="#8bc34a" opacity="0.7" transform="rotate(90)"/>
    <ellipse cx="0" cy="-15" rx="8" ry="15" fill="#8bc34a" opacity="0.7" transform="rotate(135)"/>
    <ellipse cx="0" cy="-15" rx="8" ry="15" fill="#8bc34a" opacity="0.7" transform="rotate(180)"/>
    <ellipse cx="0" cy="-15" rx="8" ry="15" fill="#8bc34a" opacity="0.7" transform="rotate(225)"/>
    <ellipse cx="0" cy="-15" rx="8" ry="15" fill="#8bc34a" opacity="0.7" transform="rotate(270)"/>
    <ellipse cx="0" cy="-15" rx="8" ry="15" fill="#8bc34a" opacity="0.7" transform="rotate(315)"/>
  </g>
  
  <!-- Inner decorative circles -->
  <circle cx="50" cy="50" r="12" fill="none" stroke="#ffd700" stroke-width="2" opacity="0.9"/>
  <circle cx="50" cy="50" r="8" fill="none" stroke="#8bc34a" stroke-width="1.5" opacity="0.8"/>
  <circle cx="50" cy="50" r="4" fill="#ffd700" opacity="0.9"/>
  
  <!-- Traditional Sundanese corner details -->
  <g transform="translate(20,20)" opacity="0.6">
    <path d="M0,0 Q5,0 5,5 Q0,5 0,0" fill="#8bc34a"/>
  </g>
  
  <g transform="translate(80,20) rotate(90)" opacity="0.6">
    <path d="M0,0 Q5,0 5,5 Q0,5 0,0" fill="#8bc34a"/>
  </g>
  
  <g transform="translate(80,80) rotate(180)" opacity="0.6">
    <path d="M0,0 Q5,0 5,5 Q0,5 0,0" fill="#8bc34a"/>
  </g>
  
  <g transform="translate(20,80) rotate(270)" opacity="0.6">
    <path d="M0,0 Q5,0 5,5 Q0,5 0,0" fill="#8bc34a"/>
  </g>
</svg>